<svg width="40" height="46" viewBox="0 0 40 46" fill="none" xmlns="http://www.w3.org/2000/svg">
<path fill-rule="evenodd" clip-rule="evenodd" d="M37.6396 41.9788C37.613 41.9788 37.5865 41.9761 37.5628 41.9712H36.3538V44.8201H37.074V43.6786C37.429 43.6786 37.6469 43.7191 37.7254 43.8001C37.8049 43.8836 37.8567 44.0686 37.8814 44.3598C37.8814 44.3698 37.8821 44.3788 37.8829 44.3878C37.8833 44.3935 37.8838 44.3991 37.8841 44.4048C37.888 44.4186 37.8891 44.4346 37.8891 44.4502C37.8891 44.4699 37.8891 44.4893 37.8919 44.5128C37.8924 44.5211 37.893 44.5293 37.8937 44.5374C37.8948 44.5505 37.8959 44.5634 37.8959 44.5756C37.8999 44.6098 37.9047 44.6446 37.9092 44.6777C37.9105 44.6871 37.9117 44.6964 37.913 44.7054C37.9218 44.7476 37.9324 44.7847 37.9483 44.8201L38.6368 44.8284C38.611 44.7588 38.5954 44.6847 38.5856 44.605C38.5759 44.5267 38.5675 44.4478 38.5634 44.3684V44.3151C38.5529 44.1472 38.529 43.9858 38.4886 43.8296C38.4496 43.6734 38.3334 43.555 38.1403 43.4704C38.2833 43.4002 38.3963 43.3063 38.4823 43.1841C38.5654 43.0628 38.6072 42.9212 38.6072 42.7577C38.6072 42.4904 38.5134 42.3002 38.3287 42.187C38.1431 42.0727 37.9407 42.0055 37.7191 41.9868C37.6931 41.9816 37.6668 41.9788 37.6396 41.9788ZM37.4068 43.255H37.074V42.4083L37.4433 42.4169C37.5772 42.4169 37.6851 42.4474 37.7699 42.5105C37.8542 42.5721 37.8959 42.6739 37.8959 42.8173C37.8959 42.9804 37.8542 43.0957 37.7699 43.1618C37.6851 43.2287 37.5649 43.2606 37.4068 43.255Z" fill="#7A003C"/>
<path fill-rule="evenodd" clip-rule="evenodd" d="M39.2561 41.6152C38.7584 41.1058 38.1578 40.8491 37.4504 40.844V40.8512C36.7439 40.8512 36.1379 41.103 35.6321 41.6062C35.1238 42.1108 34.8716 42.7186 34.8716 43.4247C34.8716 44.1367 35.1238 44.7459 35.6321 45.2467C36.1379 45.75 36.7439 46 37.4504 46C38.1578 46 38.7584 45.7482 39.2561 45.2391C39.7533 44.7342 40 44.1278 40 43.4247C40 42.7293 39.7533 42.1246 39.2561 41.6152ZM35.4357 43.4247C35.4357 42.8678 35.6288 42.3844 36.0176 41.9788C36.4057 41.573 36.8818 41.3679 37.4504 41.3624C38.0089 41.3624 38.4807 41.5691 38.8632 41.9802C39.2456 42.3923 39.4386 42.8713 39.4386 43.4216C39.4386 43.9775 39.2456 44.4595 38.8632 44.8713C38.4807 45.2828 38.0089 45.4888 37.4504 45.4888C36.887 45.4888 36.4097 45.2838 36.0203 44.8762C35.6309 44.4685 35.4357 43.9847 35.4357 43.4247Z" fill="#7A003C"/>
<path d="M33.6288 14.6635H22.1663L22.0724 8.97076H10.8898V18.0106H26.9052L33.7741 24.8919V39.1196L26.9776 45.9106H6.94264L0.0964399 39.0662V31.2528H10.9869V37.1351H22.2556V27.0067H6.94264L0 20.062V6.94545L6.94264 0H26.8848L33.6288 6.75316V14.6635Z" fill="#7A003C"/>
</svg>
